<svg width="50" height="70" viewBox="0 0 50 70" fill="none" xmlns="http://www.w3.org/2000/svg">
<g id="Logo">
<g id="P">
<rect id="Rectangle 28" x="3.84615" y="3.57141" width="11.5385" height="65.4762" fill="#1C1C1C"/>
<rect id="Rectangle 29" x="3.84615" y="3.57141" width="40.0641" height="10.7143" fill="#1C1C1C"/>
<rect id="Rectangle 30" x="3.84615" y="29.7619" width="40.0641" height="10.7143" fill="#1C1C1C"/>
<rect id="Rectangle 31" x="32.3718" y="3.57141" width="11.5385" height="35.1191" fill="#1C1C1C"/>
</g>
<g id="All Yellow">
<g id="Yellow Right">
<path id="Polygon 17" d="M32.3718 26.7857L43.9103 20.5998V32.9716L32.3718 26.7857Z" fill="#7443FF"/>
<path id="Polygon 18" d="M32.3718 39.2857L43.9103 33.0998V45.4716L32.3718 39.2857Z" fill="#7443FF"/>
</g>
<g id="Yellow Left">
<path id="Polygon 1" d="M3.84615 62.8571L15.3846 56.6712L15.3846 69.043L3.84615 62.8571Z" fill="#7443FF"/>
<path id="Polygon 2" d="M3.84615 50.2976L15.3846 44.1117L15.3846 56.4835L3.84615 50.2976Z" fill="#7443FF"/>
<path id="Polygon 3" d="M3.84615 37.7976L15.3846 31.6117L15.3846 43.9835L3.84615 37.7976Z" fill="#7443FF"/>
<path id="Polygon 4" d="M3.84615 25.2976L15.3846 19.1117L15.3846 31.4835L3.84615 25.2976Z" fill="#7443FF"/>
<path id="Polygon 5" d="M3.84615 12.7976L15.3846 6.61173L15.3846 18.9835L3.84615 12.7976Z" fill="#7443FF"/>
</g>
<g id="Yellow Bottom">
<path id="Polygon 20" d="M28.8462 40.4762L22.1844 29.7619H35.5079L28.8462 40.4762Z" fill="#7443FF"/>
</g>
<g id="Yellow Top">
<path id="Polygon 12" d="M15.3846 14.2857L8.72288 3.57142L22.0463 3.57142L15.3846 14.2857Z" fill="#7443FF"/>
<path id="Polygon 13" d="M28.8462 14.2857L22.1844 3.57142L35.5079 3.57142L28.8462 14.2857Z" fill="#7443FF"/>
<path id="Polygon 14" d="M42.3077 14.2857L35.646 3.57142L48.9694 3.57142L42.3077 14.2857Z" fill="#7443FF"/>
</g>
</g>
<g id="All green">
<g id="Green Left">
<path id="Polygon 6" d="M15.3846 56.5476L3.84615 62.7335V50.3617L15.3846 56.5476Z" fill="#FF87F3"/>
<path id="Polygon 7" d="M15.3846 44.0476L3.84615 50.2335V37.8617L15.3846 44.0476Z" fill="#FF87F3"/>
<path id="Polygon 8" d="M15.3846 31.5476L3.84615 37.7335V25.3617L15.3846 31.5476Z" fill="#FF87F3"/>
<path id="Polygon 9" d="M15.3846 19.0476L3.84615 25.2335V12.8617L15.3846 19.0476Z" fill="#FF87F3"/>
</g>
<g id="Green Right">
<path id="Polygon 15" d="M43.9103 20.5357L32.3718 26.7216V14.3498L43.9103 20.5357Z" fill="#FF87F3"/>
<path id="Polygon 16" d="M43.9103 33.0357L32.3718 39.2216V26.8498L43.9103 33.0357Z" fill="#FF87F3"/>
</g>
<g id="Green Bottom">
<path id="Polygon 19" d="M22.1154 29.7619L28.7771 40.4762H15.4537L22.1154 29.7619Z" fill="#FF87F3"/>
</g>
<g id="Green Top">
<path id="Polygon 10" d="M22.1154 3.57141L28.7771 14.2857H15.4537L22.1154 3.57141Z" fill="#FF87F3"/>
<path id="Polygon 11" d="M35.5769 3.57141L42.2387 14.2857L28.9152 14.2857L35.5769 3.57141Z" fill="#FF87F3"/>
</g>
</g>
</g>
</svg>
